# xmcd
#
# Track frame offsets:
#	150
#	14903
#	40655
#	57591
#	83746
#	102773
#	113532
#	128120
#	140655
#	155546
#	171194
#	187131
#	201614
#	214240
#	228854
#
# Disc length: 3241 seconds
#
# Revision: 1
# Processed by: cddbd v1.5.2PL0 Copyright (c) Steve Scherf et al.
# Submitted via: audiograbber 1.83.01
#
DISCID=da0ca70f
DTITLE=Various Artist - Keltika
DYEAR=1900
DGENRE=Celtic
TTITLE0=New Celeste - The Randan
TTITLE1=Clannad - Coinleach Ghlas An Fhomair (Traditional)
TTITLE2=Loretto Rheid and Brian Taheny - That's Lovely...That's It
TTITLE3=Kim Robertson - Eleanor
TTITLE4=Maighread Ni Dhomnaill - Amhran Pheadar Breathnach
TTITLE5=Al Petteway - Wetland Spring
TTITLE6=Paddy Glackin - Poirt Shingil/Dubailte: The Fairy Jig, Frainc A'Phoill'
TTITLE6=s
TTITLE7=Sinead Murray - Casting My Shadow On The Road
TTITLE8=Sean Ryan and Siuil Uait - Rileanna/Reels:London Lasses/Coast Of Austria 
TTITLE8=(Traditional)
TTITLE9=Deirbhile Ni Bhrolchain - A Stor, A Stor, A Grah (Traditional)
TTITLE10=Frankie Gavin and Paul Brock - Rileanna/Reels:Cooley's/The Wise Maid (Tr
TTITLE10=aditional)
TTITLE11=O Riada Sa Gaiety - Marcshlua Ui Neill (Traditional)
TTITLE12=Robert Fish Band - Funky Fjord
TTITLE13=Noel, Hill and Tony Macmahon - Rileanna: The Ash Plant (Traditional)
TTITLE14=Paddy Keenan - Poirt: Jigs Condon's Frolics, The Eavesdropper (Traditi
TTITLE14=onal)
EXTD=
EXTT0=
EXTT1=
EXTT2=
EXTT3=
EXTT4=
EXTT5=
EXTT6=
EXTT7=
EXTT8=
EXTT9=
EXTT10=
EXTT11=
EXTT12=
EXTT13=
EXTT14=
PLAYORDER=
